/* XPM */
static char *_1678fb9fdf54f52d04ee286058b2305[] = {
/* columns rows colors chars-per-pixel */
"64 64 57 1 ",
"  c #E92323",
". c #E82827",
"X c #EA2B2B",
"o c #EA302E",
"O c #EB3434",
"+ c #EC3738",
"@ c #EB3B3B",
"# c #EC4444",
"$ c #EC4847",
"% c #EE4C4C",
"& c #EE504F",
"* c #EE5454",
"= c #ED5758",
"- c #EE5B5B",
"; c #F05857",
": c #F05C5C",
"> c #EE605F",
", c #EF6463",
"< c #EF6D6C",
"1 c #F06362",
"2 c #F06C6B",
"3 c #F17374",
"4 c #F27877",
"5 c #F27C7B",
"6 c #F37F80",
"7 c #F38483",
"8 c #F58788",
"9 c #F48B8C",
"0 c #F49393",
"q c #F39897",
"w c #F59C9B",
"e c #F6A09F",
"r c #F6A4A5",
"t c #F7A7A8",
"y c #F6ABAB",
"u c #F8ACAB",
"i c #F7AFB0",
"p c #F7B2B2",
"a c #F8B4B5",
"s c #F9B7B8",
"d c #F7BABA",
"f c #F8BBBB",
"g c #FAC0BF",
"h c #F7C1C1",
"j c #F9C4C4",
"k c #F9C7C8",
"l c #FACBCB",
"z c #F9CFD0",
"x c #FBD4D4",
"c c #FCDCDB",
"v c #FCE3E3",
"b c #FCE8E7",
"n c #FDECEC",
"m c #FFEFF0",
"M c #FEF3F4",
"N c #FFF7F8",
"B c #FFFBFC",
/* pixels */
"BBNMnnbbvccxxxlkkgggdppyyreewq00988655433<2,1,--**%%$##@@+ooX   ",
"BBMMMnbbvcccxlllkhgddppyyreeww0098777543322111-:=*%$$##@@+OoXX  ",
"BBMMnnbvvccxxxlljhgddpiyyrrew00009777543322,,>:-;*&%$##@@+ooX   ",
"BBMMmnbvvccxxzlljggddapyyreewqq0998775443<22,>:-*&&$$#@@@+OoXX  ",
"BBMMMnbbvcccxxllkggdsapyyreewqq9997755433<2,,>--**&%###@++OoX   ",
"BBMMnnbvvccxxllljjggsapyyrrewq00997775433<2,,>--;*%%$##@++OXoX  ",
"BBMMMnbbvccxxzllkggdssiuyrrewqq0088775533<,,,>--**&$$##@@+OXX   ",
"BBNMnnbbvccxxzlljggdsppuyrrwwq09998755533<221>-=**%%$##@++OOXX  ",
"BNMMmnbbvccxzzlkkggfsapytrrewq00978765433<2,,>-:**%%$##@++OXX   ",
"BBMMMnbvvcccxzlljjgddspiurrwww00097775433<22,>--**&%$##@@+OXXX  ",
"BBNMnnbbvccxxzllkhgdsaiyurrwww00999765433321,---**%%$##@++OOX   ",
"BNMMmnbbvccxxzlljjffdpyyurrwwq0099777544322,,1--*&%$$##@@+OXXX  ",
"BBNMmnbvvcccxzzlkggdsapuurrww0009977654322211:-:**%$###@+OOOXX  ",
"BBNMmnbvvccxzzlkjggdsapiurrwww0099876553332211--=*&%$#@@+OOXXX  ",
"BNNMmnbvvccxxzlljjgfsauuurrew0009977654332211---**%%$##@@+OXXX  ",
"BBMMmnbvvccxxxllkhffsapuurreww00097765543212,1--**%%$##@++OXX   ",
"BBNMMnbbvccczzllkjfffauuurrwww00997765433<2211-=**%%$##@++oXXX  ",
"BBMMnnvbvccxxzlkkjffsapuurrwwq009977664432111>>-=*%%$##@++OOX.  ",
"BBNMMnbvvccxxzllkhffaapyurrwww009987654432211>-:**%%$###++OXXX  ",
"BNMMnnbbvcccxzlljhgfdspuurrewq00998765433<2211-=**%%$#@@@+OXX   ",
"BNMMmnbvvccxxzlljhgddaiyurrwwq0099976543332111:=**%$$$@@+OOO.X  ",
"BBMMnnbvvccxxzlljggdaapyurrwww009977664432211>::***%$$#@+OOXXX  ",
"BBMMMnnvvccxxzlljjgfsaputrrwww00998765433222,>:=**%$##@#@+OXXX  ",
"BBMMmnbvvccxxxlljjffdapyurrrw00099776543322111---*%%$##@++OXX.  ",
"BBNMMnbvvccxxzlljjgfdpiyyreewq00997775443222>1--;*%%$##@@+OoX.  ",
"BBMMnnbbvcccxzlljjffsapyyreewq00999755443<211>-;;&&%$##@++OXX.  ",
"BBMMMnbvvccxxzllkhgdsaayyrrewq0099977544321211--*&&%$##@@+OoXX  ",
"BNMMnnbvvccxxxllkhgddapyyyeewqq99977554332211>:-;*&%$##@@OOoX   ",
"BBMMMnbvvccxxzllkggfspiyyrrewqq0997775443222,,:=;*%$$#@@++OoXX  ",
"BBNMnnbbvcccxzlkjjffasayyrewwq00999755443221,1--;&&%%##@+OOoXX  ",
"BBMMnnbbvccxxzlljhgfdsiyyrrewqq0999775433222,--=*&&%$##@@+OXXX  ",
"BBNMMnbvvccxxzllkjgfaaiyyrrewq0099776543322111-:=*%%$$@@@+OXX   ",
"BBMMnnbvbcccxzllkhfdsspyyteewq099977754332,21:===&&%###@@+oOX.  ",
"BBMMMnbbvcxxxxllkjhddppyyteewqq099775553332,11>-=&%%$##+++ooX.  ",
"BBNMnnbbvccxxllkjhffsaiuyteewq0099767443322,1::-=&&%$##@@+OoX   ",
"BBNMnnbvvccxxxllkhgddapuyrrewq0099977743322,11::=*%%###@++OoXX  ",
"BBMMMnbbvcccxllljhgfaaiytrrwwq0099775543322211>:=&&%###+++OoX.  ",
"BBMMnnbvvccxxzllkhgfdaiiyrrewq0099977543322,1>-==&%%$##@++OoXX  ",
"BBMMMnbvvccxxzlllhffdaiyyyrwwq0099777544322,1>:==&&%$##@++OXX.  ",
"BBMMnnbbvccxxxllkhffdaiyyrrwwq0099776644<2221>:==%&%###@++OoX   ",
"BBNMnnbbvccxxzlljhgfsaiuyrrwwq00977775443<<,1>:=;&%%%#@#@+OXX.  ",
"BBNnnnbbvccxxzllkhffssiyyrrwwq00099755433<<,1>>=**%%###@+++XXX  ",
"BBMMnnbbvccxxxlljhgfddiytrrwwq00997775433<<,1>--**&%###+++OoXX  ",
"BBNMMnbbccccxzzkkgffaapyyrrrwqq099877544<<<<1>--**%%%##@@+OXXX  ",
"BBMMnnnvvccxxzlljggddayytrrwwqq9999755433<22>>--;&%%$##@@O+oXX  ",
"BNNMnnbvvccxxzlljggdsaayytrwww00997775533<2,1>--**&%$##+++OoX   ",
"BBMMnnbbvccxxzlljjgdsspyurrwwq00987755443<2,1>:;;*&%$##@@OoXXX  ",
"BBMMMnbvvccxxzlkkjgdsaputrrwww000977754332221>::;&%%###@@O+XX   ",
"BBNMnnbvvccxxzzljhgffapyyrrewqq998876643322211:=**%%###@@+OXXX  ",
"BBMMMnbbvccxxzzkhjgddapyyreewq0098976644322,11:=**%%%##+++OoXX  ",
"BBMMnnbvvccxxzzjjjgddaiyyrrewwq909876543322,1>>=;*%%$##@++OoX   ",
"BNNMMnbvvccxxzzljggfdaiyyreewq0099876544322,11--**%%###@@+ooXX  ",
"BBMMMnbvvcccxzljjggddapuyrreqq0099776633322,1:>=**%%%##@++OoXX  ",
"BBMMnnbbvcxxxzllkjggsapyyreewq0099776433322,11-=**%%%##@++OoXX  ",
"BBNMMnbbvccxxlzljggdsppyurrewq0099976643322,1>--;%%%###@@+OXX   ",
"BBMMnnbbvvcxxxlljggdssauurreww0099776643332211-:**&%###+++OoX   ",
"BNMMMnbvvccxxxlkjhffsaiyyrreeq0099777544322,11:=**%%##@#@+OoXX  ",
"BNNMnmbbvccxxllkkhgfsaayyrrwwq099977554432211:::**%%$##@++OXXX  ",
"BBMMMnbbvcccxzlljhffssiuyrrwwqq099976643322,1>>=;*%%$##@++OXXX  ",
"BNNMnnbvvccxxzllkkffsapuyrrewq0999777543322211-=**%%%##@@+OoX   ",
"BBMMmnbvvvcxxzlkjhffdppyytrwwqq099775534322,11:=**%%$##@++OoXX  ",
"BBMMmnbvvcccxzlkkhgfaaiittrewqq099977543322,11::**%%$##@++OXX   ",
"BBNMmnbvvcxxxxllkhhddppyttrqwqq999777543322,1>:=;&%%$##@++OXXX  ",
"BBMMmnbvvccxxzllkhhddapyttreqq00997775443<221>:==;&$$##@@+OoXX  "
};
